HIERARCHY
ROOT Hips
{
	OFFSET -33.395248 37.477898 -25.104588
	CHANNELS 6 Xposition Yposition Zposition Xrotation Yrotation Zrotation
	JOINT Chest
	{
		OFFSET -11.275318 7.361809 -2.196642
		CHANNELS 3 Xrotation Yrotation Zrotation
		JOINT Chest2
		{
			OFFSET -15.714169 14.410767 2.112194
			CHANNELS 3 Xrotation Yrotation Zrotation
			JOINT Chest3
			{
				OFFSET -7.712852 12.738396 1.032063
				CHANNELS 3 Xrotation Yrotation Zrotation
				JOINT Neck
				{
					OFFSET -7.992790 15.318443 -0.276867
					CHANNELS 3 Xrotation Yrotation Zrotation
					JOINT Head
					{
						OFFSET 0.597328 10.429184 0.838499
						CHANNELS 3 Xrotation Yrotation Zrotation
						End Site
						{
							OFFSET 0.554565 10.436104 0.779640
						}
					}
				}
				JOINT LeftCollar
				{
					OFFSET -1.832649 14.024147 1.330070
					CHANNELS 3 Xrotation Yrotation Zrotation
					JOINT LeftUpArm
					{
						OFFSET 14.204346 -0.775879 -10.302134
						CHANNELS 3 Xrotation Yrotation Zrotation
						JOINT LeftLowArm
						{
							OFFSET 32.825256 -7.881653 0.331417
							CHANNELS 3 Xrotation Yrotation Zrotation
							JOINT LeftHand
							{
								OFFSET 19.095318 21.000702 9.761461
								CHANNELS 3 Xrotation Yrotation Zrotation
								End Site
								{
									OFFSET 4.173402 4.589821 2.133425
								}
							}
						}
					}
				}
				JOINT RightCollar
				{
					OFFSET -8.993484 10.331978 3.765123
					CHANNELS 3 Xrotation Yrotation Zrotation
					JOINT RightUpArm
					{
						OFFSET -15.211777 -7.663933 -4.285114
						CHANNELS 3 Xrotation Yrotation Zrotation
						JOINT RightLowArm
						{
							OFFSET -7.872238 -30.740211 -11.523998
							CHANNELS 3 Xrotation Yrotation Zrotation
							JOINT RightHand
							{
								OFFSET -5.637619 -25.932941 14.023375
								CHANNELS 3 Xrotation Yrotation Zrotation
								End Site
								{
									OFFSET -1.232155 -5.667905 3.064943
								}
							}
						}
					}
				}
			}
		}
	}
	JOINT LeftUpLeg
	{
		OFFSET 5.543907 8.330421 -0.536974
		CHANNELS 3 Xrotation Yrotation Zrotation
		JOINT LeftLowLeg
		{
			OFFSET 31.953295 -9.790798 33.572552
			CHANNELS 3 Xrotation Yrotation Zrotation
			JOINT LeftFoot
			{
				OFFSET 43.304848 3.746113 -10.546312
				CHANNELS 3 Xrotation Yrotation Zrotation
				JOINT LeftToe
				{
					OFFSET 22.193893 7.029285 4.192797
					CHANNELS 3 Xrotation Yrotation Zrotation
					End Site
					{
						OFFSET 12.653000 12.064384 15.934588
					}
				}
			}
		}
	}
	JOINT RightUpLeg
	{
		OFFSET -5.543747 -8.330530 0.537006
		CHANNELS 3 Xrotation Yrotation Zrotation
		JOINT RightLowLeg
		{
			OFFSET 34.047760 -13.152888 30.195423
			CHANNELS 3 Xrotation Yrotation Zrotation
			JOINT RightFoot
			{
				OFFSET 43.162086 -3.322223 -11.250641
				CHANNELS 3 Xrotation Yrotation Zrotation
				JOINT RightToe
				{
					OFFSET 6.882072 11.983740 19.198538
					CHANNELS 3 Xrotation Yrotation Zrotation
					End Site
					{
						OFFSET -8.673969 8.640940 20.239876
					}
				}
			}
		}
	}
}
MOTION
Frames: 7
Frame Time: 0.033333
-31.517208 37.885979 -24.149366 -0.874068 0.185802 -0.626721 0.670768 0.775388 0.105287 -1.129392 -0.299492 -0.265044 0.550134 0.935478 0.087538 0.980355 0.262834 -0.672226 0.000000 -0.000002 -0.000000 0.771121 -0.442707 1.011481 1.163144 -1.518647 3.261829 2.032885 1.988884 -6.219308 -0.000002 0.000003 -0.000006 0.042424 0.828364 -1.042020 1.056819 0.307245 -4.056759 4.691189 0.945855 9.001127 -0.000002 -0.000000 -0.000000 -0.068235 0.899195 0.733239 0.373662 0.519830 -1.564719 1.182391 -0.700264 0.249662 0.000001 0.000000 0.000004 0.002201 0.213120 0.237293 180.099357 179.194111 -179.942577 -1.400822 0.461541 -0.964651 -0.000003 -0.000002 0.000003 
-31.735994 37.839844 -24.221561 -0.325878 0.480612 -0.519348 0.363682 0.433998 0.133462 -1.449551 -0.681813 -0.101373 1.228933 0.733842 -0.061306 -0.296212 0.636138 -1.039744 -0.000000 0.000003 -0.000001 0.135582 -0.045786 1.081961 0.597154 -1.444441 2.898768 1.645692 1.114646 -5.500404 -0.000003 0.000003 -0.000001 -0.289677 0.994166 -1.105261 0.407737 0.149644 -3.693424 4.601189 0.462885 8.643670 -0.000004 -0.000000 -0.000000 -0.344480 0.452852 0.843801 0.519994 1.803916 -1.833843 1.925854 -0.957959 0.533325 -0.000003 0.000003 0.000000 -0.024331 0.203513 0.361066 180.367196 179.215039 -180.144832 -0.854564 0.739611 -0.923415 -0.000003 0.000001 0.000003 
-31.938097 37.799286 -24.290260 -0.580982 0.465069 -0.404474 0.543007 0.661899 -0.028524 -0.788108 -0.422174 0.055807 0.681520 0.249144 -0.132164 0.040743 0.305323 -0.915615 -0.000000 -0.000002 -0.000000 0.196780 -0.646099 1.073504 0.188702 -0.820896 2.637426 1.121286 -0.017884 -4.712474 0.000000 0.000001 -0.000001 -0.477161 1.120151 -0.809483 0.291419 -0.337455 -2.791159 2.888079 0.123671 6.907545 -0.000000 -0.000001 -0.000001 -0.042377 0.519969 0.531569 0.378201 2.213230 -1.341315 2.157942 -0.898162 0.720239 0.000003 -0.000001 0.000003 0.213339 0.488580 0.106455 180.283171 179.488055 -179.747179 -0.719847 1.032756 -1.082297 -0.000000 -0.000001 0.000003 
-32.132809 37.760326 -24.359524 -0.612752 -0.058738 -0.191105 0.613796 0.703007 -0.237268 -0.794666 -0.343477 -0.071114 0.431560 0.435117 0.114337 0.462486 0.190111 -0.859361 -0.000000 0.000001 -0.000000 -0.104499 -0.032664 0.987348 0.179254 -0.838804 2.168952 1.091994 -0.667197 -3.824084 -0.000002 0.000001 -0.000006 -0.367791 1.080369 -0.672583 0.456016 -0.495429 -1.892627 2.270465 0.110220 4.944605 -0.000000 -0.000001 -0.000001 0.285460 1.015477 0.402085 0.394182 2.003903 -1.187518 2.018378 -0.980580 0.609211 -0.000004 -0.000003 0.000002 0.558983 1.104299 0.045572 180.313278 179.482249 -180.166211 -0.020876 0.959971 -0.702616 -0.000000 0.000000 0.000002 
-32.308922 37.720844 -24.429810 -0.339475 0.046466 -0.174071 0.435454 0.503519 -0.259654 -0.837075 -0.383018 -0.082901 0.652045 0.555328 0.066444 0.213195 0.105114 -0.606283 0.000000 -0.000001 -0.000000 0.075180 -0.308665 0.886719 0.160752 -0.213367 1.965068 0.787714 -0.795701 -2.847481 -0.000004 0.000000 0.000001 -0.279727 0.567503 -0.467873 0.059554 -0.295995 -1.351324 2.216734 -0.112038 3.634861 0.000002 -0.000001 -0.000000 0.173366 0.831500 0.439526 0.473355 2.007167 -1.145192 2.193587 -1.115401 0.577810 0.000002 -0.000000 0.000000 0.516641 1.093907 0.117439 180.266014 179.579812 -180.369259 0.162265 0.983384 -0.611375 -0.000003 0.000000 0.000004 
-32.468071 37.682835 -24.502913 0.020603 0.234833 -0.196334 0.258615 0.311077 -0.183700 -0.759303 -0.340092 -0.043456 0.593091 0.739189 -0.020249 0.599927 -0.250278 -0.234524 -0.000000 -0.000006 0.000000 0.451663 -0.803649 0.689073 0.172038 -0.301467 1.750291 0.539901 -0.690702 -1.800450 0.000001 -0.000000 0.000001 -0.200789 0.303542 -0.328819 -0.349565 0.039810 -0.622504 1.287925 -0.060477 2.175806 0.000002 -0.000001 -0.000001 0.018562 0.627001 0.601133 0.561141 2.001424 -1.336438 2.166983 -1.277888 0.534659 0.000001 0.000005 -0.000002 0.443198 1.151619 0.295506 180.304263 180.086776 -180.499838 0.300891 0.885439 -0.552253 -0.000001 0.000000 0.000002 
-32.612198 37.651508 -24.571621 0.090091 0.037067 -0.157989 0.479903 0.599323 -0.220233 -0.861117 -0.517003 0.073079 0.558487 0.535310 -0.026632 0.022035 -0.088828 -0.284158 -0.000000 -0.000004 -0.000000 0.124927 -0.345093 0.609389 -0.030496 -0.526071 1.368584 0.293925 -0.794297 -1.135296 0.000000 0.000002 -0.000004 -0.295288 0.996490 -0.299590 -0.174009 -0.215646 -0.099102 0.753736 -0.173936 0.909295 -0.000000 -0.000000 -0.000000 0.018686 0.656606 0.625232 0.520316 1.770643 -1.354586 2.095782 -1.374274 0.469023 0.000003 0.000003 0.000001 0.375414 0.973613 0.243816 180.336283 179.710869 -180.519851 0.422056 0.890462 -0.571145 -0.000003 0.000003 0.000002 
